name Walk10_EMG.mot
datacolumns 17
datarows 19
range 2.62100000 2.63900000
endheader
                time	            vasmed_r	            vaslat_r	            recfem_r	               gra_r	               sar_r	            tibant_r	           perlong_r	            addmag_r	           semimem_r	          bicfemlh_r	            gasmed_r	            gaslat_r	               sol_r	               tfl_r	              gmed_r	              gmax_r	
          2.62100000	          0.08830597	          0.08449529	          0.11117335	          0.21887503	          0.79365393	          0.29081975	          0.02781406	          0.30023999	          0.33957729	          0.26307476	          0.29003945	          0.16286697	          0.05589220	          0.17869559	          0.12899117	          0.19208073	
          2.62200000	          0.08857111	          0.08540421	          0.11103929	          0.22508018	          0.79367473	          0.28139300	          0.02734313	          0.30196087	          0.35064304	          0.26507420	          0.28795554	          0.16321282	          0.05594572	          0.17845462	          0.12924665	          0.19103917	
          2.62300000	          0.08888403	          0.08641145	          0.11098014	          0.23159550	          0.79397188	          0.27180925	          0.02688024	          0.30377149	          0.36175732	          0.26683573	          0.28610069	          0.16349441	          0.05598922	          0.17816169	          0.12952951	          0.18994857	
          2.62400000	          0.08924368	          0.08751528	          0.11099595	          0.23839723	          0.79452243	          0.26209645	          0.02642599	          0.30567167	          0.37289072	          0.26835684	          0.28444228	          0.16370453	          0.05602238	          0.17781292	          0.12983505	          0.18881082	
          2.62500000	          0.08964887	          0.08871393	          0.11108641	          0.24545614	          0.79529675	          0.25228228	          0.02598110	          0.30765961	          0.38401233	          0.26963587	          0.28294942	          0.16383606	          0.05604476	          0.17740594	          0.13015843	          0.18762856	
          2.62600000	          0.09009818	          0.09000674	          0.11125100	          0.25274122	          0.79626033	          0.24239414	          0.02554642	          0.30973144	          0.39508901	          0.27067130	          0.28159274	          0.16388205	          0.05605576	          0.17693967	          0.13049469	          0.18640522	
          2.62700000	          0.09058988	          0.09139447	          0.11148882	          0.26022461	          0.79737974	          0.23245923	          0.02512291	          0.31187978	          0.40608666	          0.27146244	          0.28034400	          0.16383579	          0.05605455	          0.17641423	          0.13083845	          0.18514457	
          2.62800000	          0.09112205	          0.09287833	          0.11179867	          0.26788391	          0.79862677	          0.22250434	          0.02471167	          0.31409314	          0.41697125	          0.27201132	          0.27917566	          0.16369085	          0.05604010	          0.17583153	          0.13118381	          0.18385012	
          2.62900000	          0.09169268	          0.09445894	          0.11217953	          0.27570034	          0.79997731	          0.21255581	          0.02431393	          0.31635656	          0.42771092	          0.27232353	          0.27806067	          0.16344126	          0.05601125	          0.17519601	          0.13152498	          0.18252550	
          2.63000000	          0.09229964	          0.09613567	          0.11263052	          0.28365697	          0.80140758	          0.20263949	          0.02393103	          0.31865283	          0.43827930	          0.27240720	          0.27697277	          0.16308176	          0.05596673	          0.17451419	          0.13185741	          0.18117498	
          2.63100000	          0.09294065	          0.09790605	          0.11315033	          0.29173858	          0.80289125	          0.19278086	          0.02356415	          0.32096287	          0.44865569	          0.27227189	          0.27588704	          0.16260785	          0.05590539	          0.17379281	          0.13217888	          0.17980309	
          2.63200000	          0.09361327	          0.09976552	          0.11373679	          0.29992957	          0.80439944	          0.18300488	          0.02321433	          0.32326594	          0.45882126	          0.27192795	          0.27478023	          0.16201565	          0.05582632	          0.17303731	          0.13248996	          0.17841404	
          2.63300000	          0.09431478	          0.10170788	          0.11438716	          0.30821033	          0.80590735	          0.17333569	          0.02288248	          0.32554155	          0.46875590	          0.27138622	          0.27363078	          0.16130193	          0.05572883	          0.17225192	          0.13279388	          0.17701231	
          2.63400000	          0.09504214	          0.10372572	          0.11509819	          0.31655576	          0.80740492	          0.16379625	          0.02256952	          0.32777204	          0.47843813	          0.27065853	          0.27241900	          0.16046444	          0.05561241	          0.17144128	          0.13309586	          0.17560385	
          2.63500000	          0.09579199	          0.10581057	          0.11586554	          0.32493665	          0.80890142	          0.15440807	          0.02227618	          0.32994269	          0.48784839	          0.26975873	          0.27112740	          0.15950191	          0.05547665	          0.17061196	          0.13340166	          0.17419638	
          2.63600000	          0.09656069	          0.10795284	          0.11668350	          0.33332146	          0.81042013	          0.14519115	          0.02200294	          0.33204013	          0.49697271	          0.26870363	          0.26974062	          0.15841361	          0.05532124	          0.16977233	          0.13371606	          0.17279912	
          2.63700000	          0.09734423	          0.11014186	          0.11754504	          0.34167752	          0.81198881	          0.13616410	          0.02175000	          0.33405216	          0.50580117	          0.26751451	          0.26824505	          0.15719916	          0.05514613	          0.16893157	          0.13404221	          0.17142239	
          2.63800000	          0.09813846	          0.11236614	          0.11844201	          0.34997192	          0.81363253	          0.12734419	          0.02151732	          0.33596863	          0.51432268	          0.26621803	          0.26662857	          0.15585907	          0.05495163	          0.16809929	          0.13438190	          0.17007701	
          2.63900000	          0.09893940	          0.11461373	          0.11936535	          0.35817239	          0.81537131	          0.11874746	          0.02130476	          0.33778108	          0.52252180	          0.26484493	          0.26488045	          0.15439561	          0.05473844	          0.16728534	          0.13473599	          0.16877373	
